PathFileType	4	(X/Y/Z)	F:\PHD\Matlab_Output_Files\Ahelaos\HopStudy\HopDistance\Right\HDR_1\HDR_1.trc
DataRate	CameraRate	NumFrames	NumMarkers	Units	OrigDataRate	OrigDataStartFrame	OrigNumFrames
100.000000	100.000000	4	46	m	100.000000	179	357
Frame#	Times			LFHD			RFHD			LBHD			RBHD			C7			T10			CLAV			STRN			RBAK			LSHO			LELB			LWRA			LWRB			LFIN			RSHO			RELB			RWRA			RWRB			RFIN			LASI			RASI			SACR			RPSI			LPSI			LTHI			LTHI2			LTHI3			LKNE			LTIB			LTIB2			LTIB3			LANK			LHEE			LTOE			LLatFoot			RTHI			RTHI2			RTHI3			RKNE			RTIB			RTIB2			RTIB3			RANK			RHEE			RTOE			RLatFoot
		X1	Y1	Z1	X2	Y2	Z2	X3	Y3	Z3	X4	Y4	Z4	X5	Y5	Z5	X6	Y6	Z6	X7	Y7	Z7	X8	Y8	Z8	X9	Y9	Z9	X10	Y10	Z10	X11	Y11	Z11	X12	Y12	Z12	X13	Y13	Z13	X14	Y14	Z14	X15	Y15	Z15	X16	Y16	Z16	X17	Y17	Z17	X18	Y18	Z18	X19	Y19	Z19	X20	Y20	Z20	X21	Y21	Z21	X22	Y22	Z22	X23	Y23	Z23	X24	Y24	Z24	X25	Y25	Z25	X26	Y26	Z26	X27	Y27	Z27	X28	Y28	Z28	X29	Y29	Z29	X30	Y30	Z30	X31	Y31	Z31	X32	Y32	Z32	X33	Y33	Z33	X34	Y34	Z34	X35	Y35	Z35	X36	Y36	Z36	X37	Y37	Z37	X38	Y38	Z38	X39	Y39	Z39	X40	Y40	Z40	X41	Y41	Z41	X42	Y42	Z42	X43	Y43	Z43	X44	Y44	Z44	X45	Y45	Z45	X46	Y46	Z46

179	1.79	-0.18838	1.5786	0.21866	-0.1768	1.5632	0.3304	-0.34363	1.6759	0.23769	-0.31546	1.6431	0.36461	-0.47956	1.5324	0.28812	-0.61022	1.2302	0.24587	-0.36838	1.4141	0.2672	-0.37781	1.2541	0.23357	-0.54264	1.4267	0.40524	-0.44361	1.5157	0.10164	-0.64156	1.2331	-0.041196	-0.49417	0.97694	0.00072496	-0.55328	0.93508	-0.024424	-0.48572	0.93424	-0.058905	-0.39456	1.4472	0.43182	-0.59405	1.1645	0.57039	-0.50511	0.87801	0.52578	-0.56788	0.85685	0.56546	-0.50117	0.82474	0.58878	-0.4344	1.0186	0.097691	-0.40475	1.0031	0.3251	-0.61462	1.0307	0.2327	-0.60051	1.0511	0.28675	-0.61128	1.0584	0.1782	-0.43089	0.69592	0.02888	-0.35596	0.76223	0.013408	-0.34863	0.67279	0.0065338	-0.29529	0.53132	0.022979	-0.46783	0.57571	0.045486	-0.46748	0.51083	0.052782	-0.5177	0.54129	0.063616	-0.68043	0.55551	0.12772	-0.68058	0.59412	0.16445	-0.71684	0.40917	0.14293	-0.76438	0.4838	0.12257	-0.33039	0.75051	0.37609	-0.4093	0.691	0.36374	-0.32731	0.66868	0.36028	-0.24827	0.53082	0.31164	-0.24361	0.32808	0.30225	-0.30774	0.32482	0.31595	-0.27922	0.28034	0.2992	-0.31666	0.10886	0.25652	-0.36834	0.1102	0.21171	-0.18498	0.048065	0.24424	-0.26749	0.030034	0.27268
180	1.8	-0.17876	1.5648	0.21676	-0.16722	1.5505	0.32884	-0.3338	1.6636	0.23593	-0.30547	1.6307	0.36351	-0.46828	1.5206	0.28657	-0.6037	1.2198	0.24204	-0.36	1.4014	0.26597	-0.3709	1.2402	0.23337	-0.53321	1.4161	0.40505	-0.4368	1.5017	0.09903	-0.62995	1.2107	-0.039317	-0.48689	0.95098	-0.0017105	-0.54761	0.91119	-0.027872	-0.47997	0.90942	-0.061574	-0.38576	1.4336	0.43001	-0.57828	1.1461	0.57218	-0.4948	0.85795	0.5329	-0.55843	0.84001	0.57365	-0.49276	0.80492	0.59604	-0.42658	1.001	0.099766	-0.39748	0.99918	0.33243	-0.60798	1.0184	0.22893	-0.5943	1.0374	0.28497	-0.60202	1.0464	0.17548	-0.41867	0.68287	0.031354	-0.3445	0.74991	0.013184	-0.33657	0.66046	0.0079652	-0.27881	0.5226	0.022173	-0.45309	0.56154	0.043198	-0.44965	0.49674	0.052289	-0.5011	0.52519	0.062967	-0.66463	0.53396	0.12704	-0.66622	0.57199	0.16473	-0.69596	0.38601	0.13975	-0.7466	0.45971	0.12092	-0.31266	0.75068	0.37467	-0.3858	0.6837	0.36556	-0.30202	0.66968	0.36225	-0.22525	0.52991	0.30677	-0.23414	0.32622	0.29739	-0.29733	0.32671	0.31398	-0.27234	0.27973	0.29883	-0.31342	0.10763	0.25579	-0.36256	0.11004	0.20799	-0.18351	0.047752	0.24407	-0.26668	0.030103	0.27253
181	1.81	-0.16877	1.5514	0.21577	-0.1588	1.5373	0.32753	-0.32388	1.6516	0.23488	-0.29641	1.6186	0.36182	-0.45868	1.5093	0.28418	-0.59591	1.2089	0.24067	-0.35205	1.3883	0.26386	-0.36365	1.227	0.2332	-0.52571	1.4052	0.4032	-0.42883	1.4885	0.096675	-0.61767	1.1896	-0.036173	-0.48059	0.92615	-0.0045833	-0.5422	0.88939	-0.031926	-0.47389	0.88533	-0.065209	-0.3779	1.4218	0.42795	-0.56176	1.1284	0.57308	-0.48324	0.83897	0.54062	-0.54762	0.82526	0.58308	-0.48295	0.78589	0.60365	-0.41925	0.98444	0.10257	-0.39087	0.99323	0.33633	-0.60271	1.0061	0.22581	-0.58782	1.0252	0.284	-0.59505	1.0361	0.17486	-0.40667	0.67386	0.032968	-0.33385	0.74255	0.014491	-0.32362	0.65345	0.008004	-0.26205	0.5162	0.021485	-0.43873	0.54861	0.043436	-0.43136	0.48434	0.051371	-0.48444	0.50995	0.062157	-0.64863	0.51129	0.12645	-0.65182	0.54894	0.1642	-0.67377	0.36248	0.13649	-0.72725	0.4345	0.11885	-0.29886	0.74579	0.37455	-0.36743	0.6737	0.36663	-0.28282	0.66621	0.36119	-0.20941	0.52237	0.3058	-0.22328	0.31955	0.29857	-0.28794	0.32358	0.30945	-0.26377	0.27464	0.29682	-0.31079	0.10663	0.25444	-0.36188	0.11056	0.20918	-0.18329	0.04767	0.24358	-0.26649	0.030151	0.27184
182	1.82	-0.15987	1.5385	0.21479	-0.15107	1.5249	0.32656	-0.31497	1.6401	0.23297	-0.28835	1.6068	0.35993	-0.45114	1.498	0.28137	-0.58957	1.198	0.23867	-0.34456	1.3765	0.26191	-0.35667	1.2142	0.23258	-0.51956	1.3949	0.40069	-0.42008	1.4762	0.094754	-0.60507	1.1707	-0.032891	-0.47493	0.90243	-0.00708	-0.53792	0.8686	-0.03583	-0.46939	0.86251	-0.068528	-0.37142	1.4124	0.42584	-0.54547	1.113	0.57264	-0.47083	0.82147	0.54826	-0.53516	0.811	0.59205	-0.47171	0.76868	0.61134	-0.41247	0.97118	0.10474	-0.38477	0.98587	0.33903	-0.59473	0.99467	0.22595	-0.58107	1.0146	0.28362	-0.58896	1.0259	0.17459	-0.39476	0.6657	0.034689	-0.32351	0.73681	0.015839	-0.31283	0.65036	0.0065078	-0.24602	0.51139	0.021606	-0.42424	0.53563	0.044135	-0.41443	0.47165	0.050521	-0.46839	0.49467	0.061499	-0.63239	0.48883	0.12508	-0.63764	0.52575	0.16372	-0.64983	0.33937	0.13399	-0.70699	0.40866	0.11666	-0.28939	0.73451	0.37659	-0.35824	0.66343	0.36514	-0.27381	0.65496	0.3605	-0.19938	0.51318	0.3065	-0.21576	0.31423	0.29358	-0.27936	0.31875	0.30729	-0.25633	0.2701	0.29249	-0.30855	0.10642	0.25314	-0.35904	0.11083	0.20683	-0.18311	0.047561	0.24286	-0.2663	0.030821	0.27119
